<svg width="365" height="122" viewBox="0 0 365 122" fill="none" xmlns="http://www.w3.org/2000/svg">
<path d="M32.6751 69.9847C40.3755 75.9058 51.3479 70.2123 51.3479 60.4476V0H46.6821V60.4476C46.6821 64.4148 43.5167 67.6054 39.6786 67.6054C35.8404 67.6054 32.6799 64.4198 32.6751 60.4526V60.4427H28.0189C27.9947 63.9498 29.4516 67.5065 32.6751 69.9847Z" fill="url(#paint0_linear_37_173)"/>
<path d="M74.6914 0V60.4476C74.6914 80.1896 58.9661 96.2315 39.6786 96.2315C20.3911 96.2315 4.66579 80.1797 4.66579 60.4476C4.66579 60.4328 4.66579 60.413 4.66579 60.3982H0C0 60.3982 0 60.4279 0 60.4476C0 82.8113 17.8016 101 39.6786 101C61.5555 101 79.3571 82.841 79.3571 60.4476V0H74.6914Z" fill="url(#paint1_linear_37_173)"/>
<path d="M9.33643 60.4476C9.33643 75.0847 19.3117 87.382 32.6799 90.627C51.6964 95.2323 70.0256 80.4468 70.0256 60.4476V0H56.0185V60.4476C56.0185 72.6658 43.4974 80.798 32.6751 75.5348C26.4605 72.5075 23.3483 66.4677 23.3532 60.4279H18.668C18.668 60.4279 18.668 60.4378 18.668 60.4476C18.668 69.777 24.5244 77.7361 32.6702 80.6892C46.3481 85.6457 60.6795 75.1836 60.6795 60.4476V4.77348H65.3453V60.4526C65.3453 77.8202 49.0392 90.4489 32.6654 85.7001C21.9011 82.5788 13.9925 72.4382 13.9925 60.4526C13.9925 60.4427 13.9925 60.4279 13.9925 60.418H9.32675C9.32675 60.418 9.32675 60.4378 9.32675 60.4526L9.33643 60.4476Z" fill="url(#paint2_linear_37_173)"/>
<path d="M46.6821 69.9847C38.9816 75.9058 28.0092 70.2123 28.0092 60.4476V0H32.675V60.4476C32.675 64.4148 35.8404 67.6054 39.6785 67.6054C43.5167 67.6054 46.6772 64.4198 46.6821 60.4526V60.4427H51.3382C51.3624 63.9498 49.9055 67.5065 46.6821 69.9847Z" fill="url(#paint3_linear_37_173)"/>
<path d="M4.66579 0V60.4476C4.66579 80.1896 20.3911 96.2315 39.6786 96.2315C58.9661 96.2315 74.6914 80.1797 74.6914 60.4476C74.6914 60.4328 74.6914 60.413 74.6914 60.3982H79.3571C79.3571 60.3982 79.3571 60.4279 79.3571 60.4476C79.3571 82.8113 61.5555 101 39.6786 101C17.8016 101 7.62939e-06 82.841 7.62939e-06 60.4476V0H4.66579Z" fill="url(#paint4_linear_37_173)"/>
<path d="M70.0207 60.4476C70.0207 75.0847 60.0454 87.382 46.6773 90.627C27.6608 95.2323 9.33161 80.4468 9.33161 60.4476V0H23.3387V60.4476C23.3387 72.6658 35.8598 80.798 46.6821 75.5348C52.8967 72.5075 56.0089 66.4677 56.004 60.4279H60.6892C60.6892 60.4279 60.6892 60.4378 60.6892 60.4476C60.6892 69.777 54.8327 77.7361 46.687 80.6892C33.009 85.6457 18.6777 75.1836 18.6777 60.4476V4.77348H14.0119V60.4526C14.0119 77.8202 30.318 90.4489 46.6918 85.7001C57.456 82.5788 65.3646 72.4382 65.3646 60.4526C65.3646 60.4427 65.3646 60.4279 65.3646 60.418H70.0304C70.0304 60.418 70.0304 60.4378 70.0304 60.4526L70.0207 60.4476Z" fill="url(#paint5_linear_37_173)"/>
<path d="M116.072 52.536C120.824 52.536 124.664 54.048 127.592 57.072C130.52 60.048 131.984 64.224 131.984 69.6V93H121.904V70.968C121.904 67.8 121.112 65.376 119.528 63.696C117.944 61.968 115.784 61.104 113.048 61.104C110.264 61.104 108.056 61.968 106.424 63.696C104.84 65.376 104.048 67.8 104.048 70.968V93H93.968V53.112H104.048V58.08C105.392 56.352 107.096 55.008 109.16 54.048C111.272 53.04 113.576 52.536 116.072 52.536ZM146.682 48.36C144.906 48.36 143.418 47.808 142.218 46.704C141.066 45.552 140.49 44.136 140.49 42.456C140.49 40.776 141.066 39.384 142.218 38.28C143.418 37.128 144.906 36.552 146.682 36.552C148.458 36.552 149.922 37.128 151.074 38.28C152.274 39.384 152.874 40.776 152.874 42.456C152.874 44.136 152.274 45.552 151.074 46.704C149.922 47.808 148.458 48.36 146.682 48.36ZM151.65 53.112V93H141.57V53.112H151.65ZM190.121 67.224C192.953 67.752 195.281 69.168 197.105 71.472C198.929 73.776 199.841 76.416 199.841 79.392C199.841 82.08 199.169 84.456 197.825 86.52C196.529 88.536 194.633 90.12 192.137 91.272C189.641 92.424 186.689 93 183.281 93H161.609V42.744H182.345C185.753 42.744 188.681 43.296 191.129 44.4C193.625 45.504 195.497 47.04 196.745 49.008C198.041 50.976 198.689 53.208 198.689 55.704C198.689 58.632 197.897 61.08 196.313 63.048C194.777 65.016 192.713 66.408 190.121 67.224ZM171.689 63.48H180.905C183.305 63.48 185.153 62.952 186.449 61.896C187.745 60.792 188.393 59.232 188.393 57.216C188.393 55.2 187.745 53.64 186.449 52.536C185.153 51.432 183.305 50.88 180.905 50.88H171.689V63.48ZM181.841 84.792C184.289 84.792 186.185 84.216 187.529 83.064C188.921 81.912 189.617 80.28 189.617 78.168C189.617 76.008 188.897 74.328 187.457 73.128C186.017 71.88 184.073 71.256 181.625 71.256H171.689V84.792H181.841ZM244.954 72.192C244.954 73.632 244.858 74.928 244.666 76.08H215.506C215.746 78.96 216.754 81.216 218.53 82.848C220.306 84.48 222.49 85.296 225.082 85.296C228.826 85.296 231.49 83.688 233.074 80.472H243.946C242.794 84.312 240.586 87.48 237.322 89.976C234.058 92.424 230.05 93.648 225.298 93.648C221.458 93.648 218.002 92.808 214.93 91.128C211.906 89.4 209.53 86.976 207.802 83.856C206.122 80.736 205.282 77.136 205.282 73.056C205.282 68.928 206.122 65.304 207.802 62.184C209.482 59.064 211.834 56.664 214.858 54.984C217.882 53.304 221.362 52.464 225.298 52.464C229.09 52.464 232.474 53.28 235.45 54.912C238.474 56.544 240.802 58.872 242.434 61.896C244.114 64.872 244.954 68.304 244.954 72.192ZM234.514 69.312C234.466 66.72 233.53 64.656 231.706 63.12C229.882 61.536 227.65 60.744 225.01 60.744C222.514 60.744 220.402 61.512 218.674 63.048C216.994 64.536 215.962 66.624 215.578 69.312H234.514ZM262.392 59.304C263.688 57.192 265.368 55.536 267.432 54.336C269.544 53.136 271.944 52.536 274.632 52.536V63.12H271.968C268.8 63.12 266.4 63.864 264.768 65.352C263.184 66.84 262.392 69.432 262.392 73.128V93H252.312V53.112H262.392V59.304ZM291.501 39.72V93H281.421V39.72H291.501ZM306.572 48.36C304.796 48.36 303.308 47.808 302.108 46.704C300.956 45.552 300.38 44.136 300.38 42.456C300.38 40.776 300.956 39.384 302.108 38.28C303.308 37.128 304.796 36.552 306.572 36.552C308.348 36.552 309.812 37.128 310.964 38.28C312.164 39.384 312.764 40.776 312.764 42.456C312.764 44.136 312.164 45.552 310.964 46.704C309.812 47.808 308.348 48.36 306.572 48.36ZM311.54 53.112V93H301.46V53.112H311.54ZM343.603 52.536C348.355 52.536 352.195 54.048 355.123 57.072C358.051 60.048 359.515 64.224 359.515 69.6V93H349.435V70.968C349.435 67.8 348.643 65.376 347.059 63.696C345.475 61.968 343.315 61.104 340.579 61.104C337.795 61.104 335.587 61.968 333.955 63.696C332.371 65.376 331.579 67.8 331.579 70.968V93H321.499V53.112H331.579V58.08C332.923 56.352 334.627 55.008 336.691 54.048C338.803 53.04 341.107 52.536 343.603 52.536Z" fill="white"/>
<defs>
<linearGradient id="paint0_linear_37_173" x1="39.6833" y1="0" x2="39.6833" y2="72.3923" gradientUnits="userSpaceOnUse">
<stop stop-color="#FF67CB"/>
<stop offset="1" stop-color="#FFC96A"/>
</linearGradient>
<linearGradient id="paint1_linear_37_173" x1="39.6786" y1="0" x2="39.6786" y2="101" gradientUnits="userSpaceOnUse">
<stop stop-color="#FF67CB"/>
<stop offset="1" stop-color="#FFC96A"/>
</linearGradient>
<linearGradient id="paint2_linear_37_173" x1="39.6762" y1="0" x2="39.6762" y2="91.4727" gradientUnits="userSpaceOnUse">
<stop stop-color="#FF67CB"/>
<stop offset="1" stop-color="#FFC96A"/>
</linearGradient>
<linearGradient id="paint3_linear_37_173" x1="39.6738" y1="0" x2="39.6738" y2="72.3923" gradientUnits="userSpaceOnUse">
<stop stop-color="#FF67CB"/>
<stop offset="1" stop-color="#FFC96A"/>
</linearGradient>
<linearGradient id="paint4_linear_37_173" x1="39.6786" y1="0" x2="39.6786" y2="101" gradientUnits="userSpaceOnUse">
<stop stop-color="#FF67CB"/>
<stop offset="1" stop-color="#FFC96A"/>
</linearGradient>
<linearGradient id="paint5_linear_37_173" x1="39.681" y1="0" x2="39.681" y2="91.4727" gradientUnits="userSpaceOnUse">
<stop stop-color="#FF67CB"/>
<stop offset="1" stop-color="#FFC96A"/>
</linearGradient>
</defs>
</svg>
