<svg width="367" height="122" viewBox="0 0 367 122" fill="none" xmlns="http://www.w3.org/2000/svg">
<path d="M32.6751 69.9847C40.3755 75.9058 51.3479 70.2123 51.3479 60.4476V0H46.6821V60.4476C46.6821 64.4148 43.5167 67.6054 39.6786 67.6054C35.8404 67.6054 32.6799 64.4198 32.6751 60.4526V60.4427H28.0189C27.9947 63.9498 29.4516 67.5065 32.6751 69.9847Z" fill="url(#paint0_linear_37_173)"/>
<path d="M74.6914 0V60.4476C74.6914 80.1896 58.9661 96.2315 39.6786 96.2315C20.3911 96.2315 4.66579 80.1797 4.66579 60.4476C4.66579 60.4328 4.66579 60.413 4.66579 60.3982H0C0 60.3982 0 60.4279 0 60.4476C0 82.8113 17.8016 101 39.6786 101C61.5555 101 79.3571 82.841 79.3571 60.4476V0H74.6914Z" fill="url(#paint1_linear_37_173)"/>
<path d="M9.33643 60.4476C9.33643 75.0847 19.3117 87.382 32.6799 90.627C51.6964 95.2323 70.0256 80.4468 70.0256 60.4476V0H56.0185V60.4476C56.0185 72.6658 43.4974 80.798 32.6751 75.5348C26.4605 72.5075 23.3483 66.4677 23.3532 60.4279H18.668C18.668 60.4279 18.668 60.4378 18.668 60.4476C18.668 69.777 24.5244 77.7361 32.6702 80.6892C46.3481 85.6457 60.6795 75.1836 60.6795 60.4476V4.77348H65.3453V60.4526C65.3453 77.8202 49.0392 90.4489 32.6654 85.7001C21.9011 82.5788 13.9925 72.4382 13.9925 60.4526C13.9925 60.4427 13.9925 60.4279 13.9925 60.418H9.32675C9.32675 60.418 9.32675 60.4378 9.32675 60.4526L9.33643 60.4476Z" fill="url(#paint2_linear_37_173)"/>
<path d="M46.6821 69.9847C38.9816 75.9058 28.0092 70.2123 28.0092 60.4476V0H32.675V60.4476C32.675 64.4148 35.8404 67.6054 39.6785 67.6054C43.5167 67.6054 46.6772 64.4198 46.6821 60.4526V60.4427H51.3382C51.3624 63.9498 49.9055 67.5065 46.6821 69.9847Z" fill="url(#paint3_linear_37_173)"/>
<path d="M4.66579 0V60.4476C4.66579 80.1896 20.3911 96.2315 39.6786 96.2315C58.9661 96.2315 74.6914 80.1797 74.6914 60.4476C74.6914 60.4328 74.6914 60.413 74.6914 60.3982H79.3571C79.3571 60.3982 79.3571 60.4279 79.3571 60.4476C79.3571 82.8113 61.5555 101 39.6786 101C17.8016 101 5.98561e-06 82.841 5.98561e-06 60.4476V0H4.66579Z" fill="url(#paint4_linear_37_173)"/>
<path d="M70.0207 60.4476C70.0207 75.0847 60.0454 87.382 46.6773 90.627C27.6608 95.2323 9.33161 80.4468 9.33161 60.4476V0H23.3387V60.4476C23.3387 72.6658 35.8598 80.798 46.6821 75.5348C52.8967 72.5075 56.0089 66.4677 56.004 60.4279H60.6892C60.6892 60.4279 60.6892 60.4378 60.6892 60.4476C60.6892 69.777 54.8327 77.7361 46.687 80.6892C33.009 85.6457 18.6777 75.1836 18.6777 60.4476V4.77348H14.0119V60.4526C14.0119 77.8202 30.318 90.4489 46.6918 85.7001C57.456 82.5788 65.3646 72.4382 65.3646 60.4526C65.3646 60.4427 65.3646 60.4279 65.3646 60.418H70.0304C70.0304 60.418 70.0304 60.4378 70.0304 60.4526L70.0207 60.4476Z" fill="url(#paint5_linear_37_173)"/>
<path d="M116.072 52.536C120.824 52.536 124.664 54.048 127.592 57.072C130.52 60.048 131.984 64.224 131.984 69.6V93H121.904V70.968C121.904 67.8 121.112 65.376 119.528 63.696C117.944 61.968 115.784 61.104 113.048 61.104C110.264 61.104 108.056 61.968 106.424 63.696C104.84 65.376 104.048 67.8 104.048 70.968V93H93.968V53.112H104.048V58.08C105.392 56.352 107.096 55.008 109.16 54.048C111.272 53.04 113.576 52.536 116.072 52.536ZM146.682 48.36C144.906 48.36 143.418 47.808 142.218 46.704C141.066 45.552 140.49 44.136 140.49 42.456C140.49 40.776 141.066 39.384 142.218 38.28C143.418 37.128 144.906 36.552 146.682 36.552C148.458 36.552 149.922 37.128 151.074 38.28C152.274 39.384 152.874 40.776 152.874 42.456C152.874 44.136 152.274 45.552 151.074 46.704C149.922 47.808 148.458 48.36 146.682 48.36ZM151.65 53.112V93H141.57V53.112H151.65ZM171.689 58.944C172.985 57.024 174.761 55.464 177.017 54.264C179.321 53.064 181.937 52.464 184.865 52.464C188.273 52.464 191.345 53.304 194.081 54.984C196.865 56.664 199.049 59.064 200.633 62.184C202.265 65.256 203.081 68.832 203.081 72.912C203.081 76.992 202.265 80.616 200.633 83.784C199.049 86.904 196.865 89.328 194.081 91.056C191.345 92.784 188.273 93.648 184.865 93.648C181.889 93.648 179.273 93.072 177.017 91.92C174.809 90.72 173.033 89.184 171.689 87.312V93H161.609V39.72H171.689V58.944ZM192.785 72.912C192.785 70.512 192.281 68.448 191.273 66.72C190.313 64.944 189.017 63.6 187.385 62.688C185.801 61.776 184.073 61.32 182.201 61.32C180.377 61.32 178.649 61.8 177.017 62.76C175.433 63.672 174.137 65.016 173.129 66.792C172.169 68.568 171.689 70.656 171.689 73.056C171.689 75.456 172.169 77.544 173.129 79.32C174.137 81.096 175.433 82.464 177.017 83.424C178.649 84.336 180.377 84.792 182.201 84.792C184.073 84.792 185.801 84.312 187.385 83.352C189.017 82.392 190.313 81.024 191.273 79.248C192.281 77.472 192.785 75.36 192.785 72.912ZM247.486 72.192C247.486 73.632 247.39 74.928 247.198 76.08H218.038C218.278 78.96 219.286 81.216 221.062 82.848C222.838 84.48 225.022 85.296 227.614 85.296C231.358 85.296 234.022 83.688 235.606 80.472H246.478C245.326 84.312 243.118 87.48 239.854 89.976C236.59 92.424 232.582 93.648 227.83 93.648C223.99 93.648 220.534 92.808 217.462 91.128C214.438 89.4 212.062 86.976 210.334 83.856C208.654 80.736 207.813 77.136 207.813 73.056C207.813 68.928 208.654 65.304 210.334 62.184C212.014 59.064 214.366 56.664 217.39 54.984C220.414 53.304 223.894 52.464 227.83 52.464C231.622 52.464 235.006 53.28 237.982 54.912C241.006 56.544 243.334 58.872 244.966 61.896C246.646 64.872 247.486 68.304 247.486 72.192ZM237.046 69.312C236.998 66.72 236.062 64.656 234.238 63.12C232.414 61.536 230.182 60.744 227.542 60.744C225.046 60.744 222.934 61.512 221.206 63.048C219.526 64.536 218.494 66.624 218.11 69.312H237.046ZM264.923 59.304C266.219 57.192 267.899 55.536 269.963 54.336C272.075 53.136 274.475 52.536 277.163 52.536V63.12H274.499C271.331 63.12 268.931 63.864 267.299 65.352C265.715 66.84 264.923 69.432 264.923 73.128V93H254.843V53.112H264.923V59.304ZM294.032 39.72V93H283.952V39.72H294.032ZM309.103 48.36C307.327 48.36 305.839 47.808 304.639 46.704C303.487 45.552 302.911 44.136 302.911 42.456C302.911 40.776 303.487 39.384 304.639 38.28C305.839 37.128 307.327 36.552 309.103 36.552C310.879 36.552 312.343 37.128 313.495 38.28C314.695 39.384 315.295 40.776 315.295 42.456C315.295 44.136 314.695 45.552 313.495 46.704C312.343 47.808 310.879 48.36 309.103 48.36ZM314.071 53.112V93H303.991V53.112H314.071ZM346.135 52.536C350.887 52.536 354.727 54.048 357.655 57.072C360.583 60.048 362.047 64.224 362.047 69.6V93H351.967V70.968C351.967 67.8 351.175 65.376 349.591 63.696C348.007 61.968 345.847 61.104 343.111 61.104C340.327 61.104 338.119 61.968 336.487 63.696C334.903 65.376 334.111 67.8 334.111 70.968V93H324.031V53.112H334.111V58.08C335.455 56.352 337.159 55.008 339.223 54.048C341.335 53.04 343.639 52.536 346.135 52.536Z" fill="white"/>
<defs>
<linearGradient id="paint0_linear_37_173" x1="39.6833" y1="0" x2="39.6833" y2="72.3923" gradientUnits="userSpaceOnUse">
<stop stop-color="#FF67CB"/>
<stop offset="1" stop-color="#FFC96A"/>
</linearGradient>
<linearGradient id="paint1_linear_37_173" x1="39.6786" y1="0" x2="39.6786" y2="101" gradientUnits="userSpaceOnUse">
<stop stop-color="#FF67CB"/>
<stop offset="1" stop-color="#FFC96A"/>
</linearGradient>
<linearGradient id="paint2_linear_37_173" x1="39.6762" y1="0" x2="39.6762" y2="91.4727" gradientUnits="userSpaceOnUse">
<stop stop-color="#FF67CB"/>
<stop offset="1" stop-color="#FFC96A"/>
</linearGradient>
<linearGradient id="paint3_linear_37_173" x1="39.6738" y1="0" x2="39.6738" y2="72.3923" gradientUnits="userSpaceOnUse">
<stop stop-color="#FF67CB"/>
<stop offset="1" stop-color="#FFC96A"/>
</linearGradient>
<linearGradient id="paint4_linear_37_173" x1="39.6786" y1="0" x2="39.6786" y2="101" gradientUnits="userSpaceOnUse">
<stop stop-color="#FF67CB"/>
<stop offset="1" stop-color="#FFC96A"/>
</linearGradient>
<linearGradient id="paint5_linear_37_173" x1="39.681" y1="0" x2="39.681" y2="91.4727" gradientUnits="userSpaceOnUse">
<stop stop-color="#FF67CB"/>
<stop offset="1" stop-color="#FFC96A"/>
</linearGradient>
</defs>
</svg>
